# xmcd
#
# Track frame offsets:
#	150
#	11338
#	26278
#	43018
#	56820
#	68875
#	84579
#	96802
#	109491
#	122469
#	135962
#	148707
#	164899
#	177359
#	188306
#
# Disc length: 2724 seconds
#
# Revision: 0
# Processed by: cddbd v1.5.2PL0 Copyright (c) Steve Scherf et al.
# Submitted via: EZCDAudioConverter 7.0.6.1
#
DISCID=c60aa20f
DTITLE=Various Artist - Peru Maravilloso
DYEAR=1900
DGENRE=
TTITLE0=Lucho Neves Y Su Orquesta - Mambo De Machaguay
TTITLE1=Chango Y Su Conjunto   - Salsa 73
TTITLE2=Juaneco Y Su Combo - La Cumbia Del Pacurro
TTITLE3=Los Zheros - Para Chachita 
TTITLE4=Pedro Miguel Y Sus Maracaibos - Piraña
TTITLE5=Paco Zambrano Y Su Combo - Meshkalina
TTITLE6=Los Gatos Blancos - El Chacarero 
TTITLE7=Zulu - Sueño De Amor
TTITLE8=Los Orientales - Bailando En La Campiña
TTITLE9=John Benny Y Los Ribereños - Trinan Las Golondrinas
TTITLE10=Los Ecos  - Me Siento Felíz
TTITLE11=Lucía De La Cruz - Toro Mata
TTITLE12=Manzanita Y Su Conjunto - El Zambito Rumbero
TTITLE13=Félix Martinez Y Sus Chavales - La Gallina 
TTITLE14=Aniceto Y Sus Fabulosos  - Los Fabulosos En Onda
EXTD=
EXTT0=
EXTT1=
EXTT2=
EXTT3=
EXTT4=
EXTT5=
EXTT6=
EXTT7=
EXTT8=
EXTT9=
EXTT10=
EXTT11=
EXTT12=
EXTT13=
EXTT14=
PLAYORDER=
